<svg width="262" height="73" viewBox="0 0 262 73" fill="none" xmlns="http://www.w3.org/2000/svg">
<path opacity="0.15" fill-rule="evenodd" clip-rule="evenodd" d="M18.6596 71.0255L-1.3467e-06 1.38681L4.88779 1.38681L23.8902 71.0255L18.6596 71.0255Z" fill="#02075D"/>
<path opacity="0.15" fill-rule="evenodd" clip-rule="evenodd" d="M255.89 71.0255L237.231 1.38686L242.778 1.38681L261.107 71.0255L255.89 71.0255Z" fill="#02075D"/>
<path d="M35.6133 46.4883L42.4512 28.9805H43.4707L36.0703 48H35.1387L27.7559 28.9805H28.7754L35.6133 46.4883ZM48.3926 48H47.4434V28.9805H48.3926V48ZM46.9512 23.0391C46.9512 22.7695 47.0449 22.541 47.2324 22.3535C47.4199 22.1543 47.6484 22.0547 47.918 22.0547C48.1875 22.0547 48.416 22.1543 48.6035 22.3535C48.8027 22.541 48.9023 22.7695 48.9023 23.0391C48.9023 23.3086 48.8027 23.5371 48.6035 23.7246C48.416 23.9121 48.1875 24.0059 47.918 24.0059C47.6484 24.0059 47.4199 23.9121 47.2324 23.7246C47.0449 23.5371 46.9512 23.3086 46.9512 23.0391ZM61.4707 48.3516C59.9355 48.3516 58.5234 47.9414 57.2344 47.1211C55.957 46.2891 54.9551 45.1523 54.2285 43.7109C53.502 42.2695 53.1387 40.6699 53.1387 38.9121V38.1211C53.1387 36.3633 53.4902 34.752 54.1934 33.2871C54.8965 31.8223 55.8633 30.6797 57.0938 29.8594C58.3242 29.0391 59.666 28.6289 61.1191 28.6289C63.2402 28.6289 64.9746 29.3848 66.3223 30.8965C67.6699 32.4082 68.3438 34.3945 68.3438 36.8555V37.8574H54.0879V38.8945C54.0879 40.4414 54.4102 41.877 55.0547 43.2012C55.7109 44.5137 56.6074 45.5449 57.7441 46.2949C58.8926 47.0449 60.1348 47.4199 61.4707 47.4199C62.748 47.4199 63.832 47.209 64.7227 46.7871C65.625 46.3535 66.4219 45.6914 67.1133 44.8008L67.7812 45.2754C66.3633 47.3262 64.2598 48.3516 61.4707 48.3516ZM61.1191 29.5781C59.2676 29.5781 57.6973 30.2695 56.4082 31.6523C55.1191 33.0234 54.3633 34.7754 54.1406 36.9082H67.3945V36.6797C67.3945 35.3906 67.1191 34.1953 66.5684 33.0938C66.0293 31.9805 65.2793 31.1191 64.3184 30.5098C63.3691 29.8887 62.3027 29.5781 61.1191 29.5781ZM76.1836 42.498L77.2207 46.5938L82.793 28.9805H83.7598L89.2969 46.5938L90.3691 42.498L94.2363 28.9805H95.3438L89.8066 48H88.8574L84.1641 33.709L83.2676 30.2988L82.3008 33.709L77.6777 48H76.7285L71.209 28.9805H72.2988L76.1836 42.498ZM123.17 38.666C123.17 41.6309 122.531 43.9863 121.254 45.7324C119.977 47.4785 118.236 48.3516 116.033 48.3516C114.592 48.3516 113.309 48.0586 112.184 47.4727C111.059 46.8867 110.18 46.0781 109.547 45.0469V55.3125H108.598V28.9805H109.547V32.373C110.203 31.166 111.088 30.2402 112.201 29.5957C113.314 28.9512 114.58 28.6289 115.998 28.6289C118.225 28.6289 119.977 29.4844 121.254 31.1953C122.531 32.8945 123.17 35.2852 123.17 38.3672V38.666ZM122.203 38.2969C122.203 35.5664 121.658 33.4336 120.568 31.8984C119.49 30.3516 117.973 29.5781 116.016 29.5781C114.422 29.5781 113.068 29.9941 111.955 30.8262C110.842 31.6465 110.039 32.8301 109.547 34.377V43.2715C110.039 44.584 110.842 45.6035 111.955 46.3301C113.08 47.0449 114.445 47.4023 116.051 47.4023C117.996 47.4023 119.508 46.6289 120.586 45.082C121.664 43.5352 122.203 41.2734 122.203 38.2969ZM126.914 38.1211C126.914 36.3047 127.26 34.6758 127.951 33.2344C128.654 31.7812 129.639 30.6504 130.904 29.8418C132.182 29.0332 133.623 28.6289 135.229 28.6289C136.822 28.6289 138.252 29.0215 139.518 29.8066C140.783 30.5918 141.768 31.7051 142.471 33.1465C143.186 34.5879 143.549 36.2109 143.561 38.0156V38.8594C143.561 40.6875 143.215 42.3223 142.523 43.7637C141.832 45.2051 140.848 46.3301 139.57 47.1387C138.305 47.9473 136.869 48.3516 135.264 48.3516C133.658 48.3516 132.217 47.9531 130.939 47.1562C129.674 46.3594 128.689 45.2461 127.986 43.8164C127.283 42.375 126.926 40.7578 126.914 38.9648V38.1211ZM127.863 38.8594C127.863 40.4414 128.174 41.8945 128.795 43.2188C129.428 44.5312 130.301 45.5566 131.414 46.2949C132.539 47.0332 133.822 47.4023 135.264 47.4023C137.432 47.4023 139.195 46.5879 140.555 44.959C141.926 43.3301 142.611 41.2324 142.611 38.666V38.1211C142.611 36.5625 142.295 35.1211 141.662 33.7969C141.029 32.4727 140.15 31.4414 139.025 30.7031C137.912 29.9531 136.646 29.5781 135.229 29.5781C133.061 29.5781 131.291 30.4043 129.92 32.0566C128.549 33.709 127.863 35.7891 127.863 38.2969V38.8594ZM156.568 29.666L155.338 29.5605C153.721 29.5605 152.367 30.0879 151.277 31.1426C150.188 32.1855 149.473 33.6504 149.133 35.5371V48H148.184V28.9805H149.133V32.9355C149.648 31.6113 150.422 30.5625 151.453 29.7891C152.484 29.0156 153.779 28.6289 155.338 28.6289C155.889 28.6289 156.334 28.6934 156.674 28.8223L156.568 29.666ZM163.248 23.8477V28.9805H167.572V29.9473H163.248V43.4473C163.248 44.7949 163.465 45.791 163.898 46.4355C164.344 47.0801 165.082 47.4023 166.113 47.4023C166.629 47.4023 167.256 47.3496 167.994 47.2441L168.152 48.1406C167.766 48.2812 167.104 48.3516 166.166 48.3516C164.783 48.3516 163.793 47.9707 163.195 47.209C162.598 46.4355 162.293 45.2227 162.281 43.5703V29.9473H158.766V28.9805H162.281V23.8477H163.248ZM173.953 48V29.9473H170.648V28.9805H173.953V26.2031C173.965 24.4453 174.404 23.0801 175.271 22.1074C176.15 21.123 177.369 20.6309 178.928 20.6309C179.795 20.6309 180.545 20.7305 181.178 20.9297L181.037 21.8438C180.428 21.668 179.73 21.5801 178.945 21.5801C177.691 21.5801 176.701 21.9902 175.975 22.8105C175.26 23.6191 174.902 24.7734 174.902 26.2734V28.9805H179.93V29.9473H174.902V48H173.953ZM182.426 38.1211C182.426 36.3047 182.771 34.6758 183.463 33.2344C184.166 31.7812 185.15 30.6504 186.416 29.8418C187.693 29.0332 189.135 28.6289 190.74 28.6289C192.334 28.6289 193.764 29.0215 195.029 29.8066C196.295 30.5918 197.279 31.7051 197.982 33.1465C198.697 34.5879 199.061 36.2109 199.072 38.0156V38.8594C199.072 40.6875 198.727 42.3223 198.035 43.7637C197.344 45.2051 196.359 46.3301 195.082 47.1387C193.816 47.9473 192.381 48.3516 190.775 48.3516C189.17 48.3516 187.729 47.9531 186.451 47.1562C185.186 46.3594 184.201 45.2461 183.498 43.8164C182.795 42.375 182.438 40.7578 182.426 38.9648V38.1211ZM183.375 38.8594C183.375 40.4414 183.686 41.8945 184.307 43.2188C184.939 44.5312 185.812 45.5566 186.926 46.2949C188.051 47.0332 189.334 47.4023 190.775 47.4023C192.943 47.4023 194.707 46.5879 196.066 44.959C197.438 43.3301 198.123 41.2324 198.123 38.666V38.1211C198.123 36.5625 197.807 35.1211 197.174 33.7969C196.541 32.4727 195.662 31.4414 194.537 30.7031C193.424 29.9531 192.158 29.5781 190.74 29.5781C188.572 29.5781 186.803 30.4043 185.432 32.0566C184.061 33.709 183.375 35.7891 183.375 38.2969V38.8594ZM204.873 48H203.924V21H204.873V48ZM212.291 48H211.342V28.9805H212.291V48ZM210.85 23.0391C210.85 22.7695 210.943 22.541 211.131 22.3535C211.318 22.1543 211.547 22.0547 211.816 22.0547C212.086 22.0547 212.314 22.1543 212.502 22.3535C212.701 22.541 212.801 22.7695 212.801 23.0391C212.801 23.3086 212.701 23.5371 212.502 23.7246C212.314 23.9121 212.086 24.0059 211.816 24.0059C211.547 24.0059 211.318 23.9121 211.131 23.7246C210.943 23.5371 210.85 23.3086 210.85 23.0391ZM217.09 38.1211C217.09 36.3047 217.436 34.6758 218.127 33.2344C218.83 31.7812 219.814 30.6504 221.08 29.8418C222.357 29.0332 223.799 28.6289 225.404 28.6289C226.998 28.6289 228.428 29.0215 229.693 29.8066C230.959 30.5918 231.943 31.7051 232.646 33.1465C233.361 34.5879 233.725 36.2109 233.736 38.0156V38.8594C233.736 40.6875 233.391 42.3223 232.699 43.7637C232.008 45.2051 231.023 46.3301 229.746 47.1387C228.48 47.9473 227.045 48.3516 225.439 48.3516C223.834 48.3516 222.393 47.9531 221.115 47.1562C219.85 46.3594 218.865 45.2461 218.162 43.8164C217.459 42.375 217.102 40.7578 217.09 38.9648V38.1211ZM218.039 38.8594C218.039 40.4414 218.35 41.8945 218.971 43.2188C219.604 44.5312 220.477 45.5566 221.59 46.2949C222.715 47.0332 223.998 47.4023 225.439 47.4023C227.607 47.4023 229.371 46.5879 230.73 44.959C232.102 43.3301 232.787 41.2324 232.787 38.666V38.1211C232.787 36.5625 232.471 35.1211 231.838 33.7969C231.205 32.4727 230.326 31.4414 229.201 30.7031C228.088 29.9531 226.822 29.5781 225.404 29.5781C223.236 29.5781 221.467 30.4043 220.096 32.0566C218.725 33.709 218.039 35.7891 218.039 38.2969V38.8594Z" fill="#02075D"/>
</svg>
