<svg width="388" height="73" viewBox="0 0 388 73" fill="none" xmlns="http://www.w3.org/2000/svg">
<path opacity="0.15" fill-rule="evenodd" clip-rule="evenodd" d="M18.6597 71.0255L5.96885e-05 1.38681L4.88785 1.38681L23.8903 71.0255L18.6597 71.0255Z" fill="#02075D"/>
<path opacity="0.15" fill-rule="evenodd" clip-rule="evenodd" d="M381.89 71.0255L363.231 1.38686L368.778 1.38681L387.107 71.0255L381.89 71.0255Z" fill="#02075D"/>
<path d="M44.5605 38.666C44.5605 41.6309 43.9219 43.9863 42.6445 45.7324C41.3672 47.4785 39.627 48.3516 37.4238 48.3516C35.9824 48.3516 34.6992 48.0586 33.5742 47.4727C32.4492 46.8867 31.5703 46.0781 30.9375 45.0469V55.3125H29.9883V28.9805H30.9375V32.373C31.5938 31.166 32.4785 30.2402 33.5918 29.5957C34.7051 28.9512 35.9707 28.6289 37.3887 28.6289C39.6152 28.6289 41.3672 29.4844 42.6445 31.1953C43.9219 32.8945 44.5605 35.2852 44.5605 38.3672V38.666ZM43.5938 38.2969C43.5938 35.5664 43.0488 33.4336 41.959 31.8984C40.8809 30.3516 39.3633 29.5781 37.4062 29.5781C35.8125 29.5781 34.459 29.9941 33.3457 30.8262C32.2324 31.6465 31.4297 32.8301 30.9375 34.377V43.2715C31.4297 44.584 32.2324 45.6035 33.3457 46.3301C34.4707 47.0449 35.8359 47.4023 37.4414 47.4023C39.3867 47.4023 40.8984 46.6289 41.9766 45.082C43.0547 43.5352 43.5938 41.2734 43.5938 38.2969ZM58.1309 29.666L56.9004 29.5605C55.2832 29.5605 53.9297 30.0879 52.8398 31.1426C51.75 32.1855 51.0352 33.6504 50.6953 35.5371V48H49.7461V28.9805H50.6953V32.9355C51.2109 31.6113 51.9844 30.5625 53.0156 29.7891C54.0469 29.0156 55.3418 28.6289 56.9004 28.6289C57.4512 28.6289 57.8965 28.6934 58.2363 28.8223L58.1309 29.666ZM60.0117 38.1211C60.0117 36.3047 60.3574 34.6758 61.0488 33.2344C61.752 31.7812 62.7363 30.6504 64.002 29.8418C65.2793 29.0332 66.7207 28.6289 68.3262 28.6289C69.9199 28.6289 71.3496 29.0215 72.6152 29.8066C73.8809 30.5918 74.8652 31.7051 75.5684 33.1465C76.2832 34.5879 76.6465 36.2109 76.6582 38.0156V38.8594C76.6582 40.6875 76.3125 42.3223 75.6211 43.7637C74.9297 45.2051 73.9453 46.3301 72.668 47.1387C71.4023 47.9473 69.9668 48.3516 68.3613 48.3516C66.7559 48.3516 65.3145 47.9531 64.0371 47.1562C62.7715 46.3594 61.7871 45.2461 61.084 43.8164C60.3809 42.375 60.0234 40.7578 60.0117 38.9648V38.1211ZM60.9609 38.8594C60.9609 40.4414 61.2715 41.8945 61.8926 43.2188C62.5254 44.5312 63.3984 45.5566 64.5117 46.2949C65.6367 47.0332 66.9199 47.4023 68.3613 47.4023C70.5293 47.4023 72.293 46.5879 73.6523 44.959C75.0234 43.3301 75.709 41.2324 75.709 38.666V38.1211C75.709 36.5625 75.3926 35.1211 74.7598 33.7969C74.127 32.4727 73.248 31.4414 72.123 30.7031C71.0098 29.9531 69.7441 29.5781 68.3262 29.5781C66.1582 29.5781 64.3887 30.4043 63.0176 32.0566C61.6465 33.709 60.9609 35.7891 60.9609 38.2969V38.8594ZM80.4023 38.2969C80.4023 35.2617 81.041 32.8945 82.3184 31.1953C83.5957 29.4844 85.3477 28.6289 87.5742 28.6289C89.0039 28.6289 90.2637 28.9512 91.3535 29.5957C92.4551 30.2402 93.3457 31.2012 94.0254 32.4785V21H94.9746V48H94.0254V44.959C93.3809 46.0371 92.4961 46.875 91.3711 47.4727C90.2461 48.0586 88.9688 48.3516 87.5391 48.3516C85.3359 48.3516 83.5957 47.4785 82.3184 45.7324C81.041 43.9863 80.4023 41.5898 80.4023 38.543V38.2969ZM81.3867 38.666C81.3867 41.3613 81.9199 43.4941 82.9863 45.0645C84.0527 46.623 85.5645 47.4023 87.5215 47.4023C89.0918 47.4023 90.4336 47.0566 91.5469 46.3652C92.6602 45.6621 93.4863 44.6367 94.0254 43.2891V34.377C92.9355 31.1777 90.7793 29.5781 87.5566 29.5781C85.6113 29.5781 84.0938 30.3457 83.0039 31.8809C81.9258 33.416 81.3867 35.6777 81.3867 38.666ZM113.748 48V44.9238C113.186 45.9785 112.365 46.8164 111.287 47.4375C110.209 48.0469 108.844 48.3516 107.191 48.3516C105.117 48.3516 103.559 47.748 102.516 46.541C101.484 45.3223 100.957 43.5527 100.934 41.2324V28.9805H101.883V41.2676C101.906 43.2832 102.363 44.8125 103.254 45.8555C104.145 46.8867 105.445 47.4023 107.156 47.4023C108.973 47.4023 110.449 46.9746 111.586 46.1191C112.723 45.2637 113.443 44.0098 113.748 42.3574V28.9805H114.715V48H113.748ZM127.178 47.4023C128.9 47.4023 130.318 46.9453 131.432 46.0312C132.557 45.1172 133.172 43.8516 133.277 42.2344H134.227C134.133 44.0742 133.424 45.5566 132.1 46.6816C130.775 47.7949 129.135 48.3516 127.178 48.3516C124.799 48.3516 122.906 47.4902 121.5 45.7676C120.105 44.0449 119.408 41.707 119.408 38.7539V38.1211C119.408 35.2383 120.105 32.9355 121.5 31.2129C122.906 29.4902 124.787 28.6289 127.143 28.6289C129.158 28.6289 130.822 29.2324 132.135 30.4395C133.447 31.6465 134.145 33.252 134.227 35.2559H133.277C133.195 33.5449 132.592 32.1738 131.467 31.1426C130.354 30.0996 128.912 29.5781 127.143 29.5781C125.021 29.5781 123.357 30.3457 122.15 31.8809C120.955 33.4043 120.357 35.5254 120.357 38.2441V38.8594C120.357 41.5195 120.961 43.6113 122.168 45.1348C123.387 46.6465 125.057 47.4023 127.178 47.4023ZM141.135 23.8477V28.9805H145.459V29.9473H141.135V43.4473C141.135 44.7949 141.352 45.791 141.785 46.4355C142.23 47.0801 142.969 47.4023 144 47.4023C144.516 47.4023 145.143 47.3496 145.881 47.2441L146.039 48.1406C145.652 48.2812 144.99 48.3516 144.053 48.3516C142.67 48.3516 141.68 47.9707 141.082 47.209C140.484 46.4355 140.18 45.2227 140.168 43.5703V29.9473H136.652V28.9805H140.168V23.8477H141.135ZM163.406 33.9023C162.375 32.6367 161.631 31.5 161.174 30.4922C160.729 29.4844 160.506 28.4824 160.506 27.4863C160.506 25.834 160.998 24.5156 161.982 23.5312C162.979 22.5352 164.273 22.0371 165.867 22.0371C167.332 22.0371 168.504 22.4707 169.383 23.3379C170.273 24.1934 170.719 25.3066 170.719 26.6777C170.719 28.2715 169.617 29.9824 167.414 31.8105L164.672 33.9902L173.021 43.4648C174.369 41.5898 175.043 39.3984 175.043 36.8906H176.01C176.01 39.668 175.23 42.1055 173.672 44.2031L177.012 48H175.834L173.074 44.9062C170.777 47.2031 168.299 48.3516 165.639 48.3516C163.283 48.3516 161.42 47.7656 160.049 46.5938C158.689 45.4102 158.01 43.8164 158.01 41.8125C158.01 40.6641 158.338 39.5332 158.994 38.4199C159.662 37.2949 160.834 36.0234 162.51 34.6055L163.406 33.9023ZM165.639 47.4023C166.939 47.4023 168.176 47.127 169.348 46.5762C170.531 46.0137 171.568 45.2168 172.459 44.1855L163.969 34.5703L163.055 35.291C161.672 36.4863 160.641 37.6055 159.961 38.6484C159.293 39.6914 158.959 40.7461 158.959 41.8125C158.959 43.4766 159.562 44.8242 160.77 45.8555C161.988 46.8867 163.611 47.4023 165.639 47.4023ZM161.473 27.4512C161.473 29.3027 162.352 31.2656 164.109 33.3398L167.186 30.8965C168.885 29.4785 169.734 28.0723 169.734 26.6777C169.734 25.5996 169.371 24.7148 168.645 24.0234C167.93 23.332 167.004 22.9863 165.867 22.9863C164.543 22.9863 163.477 23.4023 162.668 24.2344C161.871 25.0547 161.473 26.127 161.473 27.4512ZM190.74 48H189.791V21H190.74V48ZM195.539 38.1211C195.539 36.3047 195.885 34.6758 196.576 33.2344C197.279 31.7812 198.264 30.6504 199.529 29.8418C200.807 29.0332 202.248 28.6289 203.854 28.6289C205.447 28.6289 206.877 29.0215 208.143 29.8066C209.408 30.5918 210.393 31.7051 211.096 33.1465C211.811 34.5879 212.174 36.2109 212.186 38.0156V38.8594C212.186 40.6875 211.84 42.3223 211.148 43.7637C210.457 45.2051 209.473 46.3301 208.195 47.1387C206.93 47.9473 205.494 48.3516 203.889 48.3516C202.283 48.3516 200.842 47.9531 199.564 47.1562C198.299 46.3594 197.314 45.2461 196.611 43.8164C195.908 42.375 195.551 40.7578 195.539 38.9648V38.1211ZM196.488 38.8594C196.488 40.4414 196.799 41.8945 197.42 43.2188C198.053 44.5312 198.926 45.5566 200.039 46.2949C201.164 47.0332 202.447 47.4023 203.889 47.4023C206.057 47.4023 207.82 46.5879 209.18 44.959C210.551 43.3301 211.236 41.2324 211.236 38.666V38.1211C211.236 36.5625 210.92 35.1211 210.287 33.7969C209.654 32.4727 208.775 31.4414 207.65 30.7031C206.537 29.9531 205.271 29.5781 203.854 29.5781C201.686 29.5781 199.916 30.4043 198.545 32.0566C197.174 33.709 196.488 35.7891 196.488 38.2969V38.8594ZM215.912 38.2969C215.912 35.2617 216.551 32.8945 217.828 31.1953C219.105 29.4844 220.857 28.6289 223.084 28.6289C224.502 28.6289 225.762 28.957 226.863 29.6133C227.965 30.2578 228.85 31.207 229.518 32.4609V28.9805H230.484V47.666C230.484 50.1738 229.84 52.1309 228.551 53.5371C227.262 54.9551 225.51 55.6641 223.295 55.6641C222.018 55.6641 220.846 55.3887 219.779 54.8379C218.725 54.2871 217.822 53.4961 217.072 52.4648L217.74 51.832C218.479 52.7695 219.287 53.4844 220.166 53.9766C221.045 54.4805 222.076 54.7324 223.26 54.7324C225.217 54.7324 226.74 54.1348 227.83 52.9395C228.92 51.7559 229.482 50.0801 229.518 47.9121V44.9941C228.861 46.0723 227.971 46.9043 226.846 47.4902C225.732 48.0645 224.467 48.3516 223.049 48.3516C220.846 48.3516 219.105 47.4785 217.828 45.7324C216.551 43.9863 215.912 41.5898 215.912 38.543V38.2969ZM216.879 38.666C216.879 41.3848 217.418 43.5234 218.496 45.082C219.574 46.6289 221.086 47.4023 223.031 47.4023C224.637 47.4023 226.002 47.0332 227.127 46.2949C228.252 45.5449 229.049 44.4961 229.518 43.1484V34.5176C228.486 31.2246 226.336 29.5781 223.066 29.5781C221.109 29.5781 219.586 30.3457 218.496 31.8809C217.418 33.416 216.879 35.6777 216.879 38.666ZM235.125 38.1211C235.125 36.3047 235.471 34.6758 236.162 33.2344C236.865 31.7812 237.85 30.6504 239.115 29.8418C240.393 29.0332 241.834 28.6289 243.439 28.6289C245.033 28.6289 246.463 29.0215 247.729 29.8066C248.994 30.5918 249.979 31.7051 250.682 33.1465C251.396 34.5879 251.76 36.2109 251.771 38.0156V38.8594C251.771 40.6875 251.426 42.3223 250.734 43.7637C250.043 45.2051 249.059 46.3301 247.781 47.1387C246.516 47.9473 245.08 48.3516 243.475 48.3516C241.869 48.3516 240.428 47.9531 239.15 47.1562C237.885 46.3594 236.9 45.2461 236.197 43.8164C235.494 42.375 235.137 40.7578 235.125 38.9648V38.1211ZM236.074 38.8594C236.074 40.4414 236.385 41.8945 237.006 43.2188C237.639 44.5312 238.512 45.5566 239.625 46.2949C240.75 47.0332 242.033 47.4023 243.475 47.4023C245.643 47.4023 247.406 46.5879 248.766 44.959C250.137 43.3301 250.822 41.2324 250.822 38.666V38.1211C250.822 36.5625 250.506 35.1211 249.873 33.7969C249.24 32.4727 248.361 31.4414 247.236 30.7031C246.123 29.9531 244.857 29.5781 243.439 29.5781C241.271 29.5781 239.502 30.4043 238.131 32.0566C236.76 33.709 236.074 35.7891 236.074 38.2969V38.8594ZM264.129 38.2969C264.129 35.2617 264.768 32.8945 266.045 31.1953C267.322 29.4844 269.074 28.6289 271.301 28.6289C272.73 28.6289 273.99 28.9512 275.08 29.5957C276.182 30.2402 277.072 31.2012 277.752 32.4785V21H278.701V48H277.752V44.959C277.107 46.0371 276.223 46.875 275.098 47.4727C273.973 48.0586 272.695 48.3516 271.266 48.3516C269.062 48.3516 267.322 47.4785 266.045 45.7324C264.768 43.9863 264.129 41.5898 264.129 38.543V38.2969ZM265.113 38.666C265.113 41.3613 265.646 43.4941 266.713 45.0645C267.779 46.623 269.291 47.4023 271.248 47.4023C272.818 47.4023 274.16 47.0566 275.273 46.3652C276.387 45.6621 277.213 44.6367 277.752 43.2891V34.377C276.662 31.1777 274.506 29.5781 271.283 29.5781C269.338 29.5781 267.82 30.3457 266.73 31.8809C265.652 33.416 265.113 35.6777 265.113 38.666ZM291.568 48.3516C290.033 48.3516 288.621 47.9414 287.332 47.1211C286.055 46.2891 285.053 45.1523 284.326 43.7109C283.6 42.2695 283.236 40.6699 283.236 38.9121V38.1211C283.236 36.3633 283.588 34.752 284.291 33.2871C284.994 31.8223 285.961 30.6797 287.191 29.8594C288.422 29.0391 289.764 28.6289 291.217 28.6289C293.338 28.6289 295.072 29.3848 296.42 30.8965C297.768 32.4082 298.441 34.3945 298.441 36.8555V37.8574H284.186V38.8945C284.186 40.4414 284.508 41.877 285.152 43.2012C285.809 44.5137 286.705 45.5449 287.842 46.2949C288.99 47.0449 290.232 47.4199 291.568 47.4199C292.846 47.4199 293.93 47.209 294.82 46.7871C295.723 46.3535 296.52 45.6914 297.211 44.8008L297.879 45.2754C296.461 47.3262 294.357 48.3516 291.568 48.3516ZM291.217 29.5781C289.365 29.5781 287.795 30.2695 286.506 31.6523C285.217 33.0234 284.461 34.7754 284.238 36.9082H297.492V36.6797C297.492 35.3906 297.217 34.1953 296.666 33.0938C296.127 31.9805 295.377 31.1191 294.416 30.5098C293.467 29.8887 292.4 29.5781 291.217 29.5781ZM314.596 43.3418C314.596 41.0332 312.627 39.4629 308.689 38.6309C306.322 38.127 304.676 37.4824 303.75 36.6973C302.824 35.9004 302.361 34.8105 302.361 33.4277C302.361 32.0332 302.947 30.8848 304.119 29.9824C305.303 29.0801 306.838 28.6289 308.725 28.6289C310.775 28.6289 312.422 29.1211 313.664 30.1055C314.906 31.0781 315.527 32.3965 315.527 34.0605H314.561C314.561 32.7832 314.021 31.7168 312.943 30.8613C311.865 30.0059 310.459 29.5781 308.725 29.5781C307.061 29.5781 305.742 29.9414 304.77 30.668C303.797 31.3945 303.311 32.3027 303.311 33.3926C303.311 34.248 303.492 34.9219 303.855 35.4141C304.219 35.8945 304.811 36.334 305.631 36.7324C306.451 37.1191 307.646 37.4941 309.217 37.8574C310.787 38.2207 312.029 38.6484 312.943 39.1406C313.857 39.6328 314.52 40.2188 314.93 40.8984C315.34 41.5664 315.545 42.3867 315.545 43.3594C315.545 44.8594 314.93 46.0664 313.699 46.9805C312.469 47.8945 310.857 48.3516 308.865 48.3516C306.732 48.3516 305.01 47.8711 303.697 46.9102C302.396 45.9375 301.746 44.6895 301.746 43.166H302.695C302.789 44.502 303.375 45.5449 304.453 46.2949C305.543 47.0332 307.014 47.4023 308.865 47.4023C310.564 47.4023 311.941 47.0098 312.996 46.2246C314.062 45.4277 314.596 44.4668 314.596 43.3418ZM321.979 48H321.029V28.9805H321.979V48ZM320.537 23.0391C320.537 22.7695 320.631 22.541 320.818 22.3535C321.006 22.1543 321.234 22.0547 321.504 22.0547C321.773 22.0547 322.002 22.1543 322.189 22.3535C322.389 22.541 322.488 22.7695 322.488 23.0391C322.488 23.3086 322.389 23.5371 322.189 23.7246C322.002 23.9121 321.773 24.0059 321.504 24.0059C321.234 24.0059 321.006 23.9121 320.818 23.7246C320.631 23.5371 320.537 23.3086 320.537 23.0391ZM327.322 38.2969C327.322 35.2617 327.961 32.8945 329.238 31.1953C330.516 29.4844 332.268 28.6289 334.494 28.6289C335.912 28.6289 337.172 28.957 338.273 29.6133C339.375 30.2578 340.26 31.207 340.928 32.4609V28.9805H341.895V47.666C341.895 50.1738 341.25 52.1309 339.961 53.5371C338.672 54.9551 336.92 55.6641 334.705 55.6641C333.428 55.6641 332.256 55.3887 331.189 54.8379C330.135 54.2871 329.232 53.4961 328.482 52.4648L329.15 51.832C329.889 52.7695 330.697 53.4844 331.576 53.9766C332.455 54.4805 333.486 54.7324 334.67 54.7324C336.627 54.7324 338.15 54.1348 339.24 52.9395C340.33 51.7559 340.893 50.0801 340.928 47.9121V44.9941C340.271 46.0723 339.381 46.9043 338.256 47.4902C337.143 48.0645 335.877 48.3516 334.459 48.3516C332.256 48.3516 330.516 47.4785 329.238 45.7324C327.961 43.9863 327.322 41.5898 327.322 38.543V38.2969ZM328.289 38.666C328.289 41.3848 328.828 43.5234 329.906 45.082C330.984 46.6289 332.496 47.4023 334.441 47.4023C336.047 47.4023 337.412 47.0332 338.537 46.2949C339.662 45.5449 340.459 44.4961 340.928 43.1484V34.5176C339.896 31.2246 337.746 29.5781 334.477 29.5781C332.52 29.5781 330.996 30.3457 329.906 31.8809C328.828 33.416 328.289 35.6777 328.289 38.666ZM348.926 33.4102C349.547 31.9336 350.461 30.7676 351.668 29.9121C352.875 29.0566 354.211 28.6289 355.676 28.6289C357.715 28.6289 359.227 29.209 360.211 30.3691C361.207 31.5176 361.711 33.2578 361.723 35.5898V48H360.773V35.5547C360.762 33.5156 360.346 32.0098 359.525 31.0371C358.705 30.0527 357.404 29.5605 355.623 29.5605C353.982 29.5605 352.559 30.1465 351.352 31.3184C350.156 32.4785 349.348 33.9785 348.926 35.8184V48H347.977V28.9805H348.926V33.4102Z" fill="#02075D"/>
</svg>
