<svg width="403" height="73" viewBox="0 0 403 73" fill="none" xmlns="http://www.w3.org/2000/svg">
<path opacity="0.15" fill-rule="evenodd" clip-rule="evenodd" d="M18.6597 71.0255L5.96885e-05 1.38681L4.88785 1.38681L23.8903 71.0255L18.6597 71.0255Z" fill="#02075D"/>
<path opacity="0.15" fill-rule="evenodd" clip-rule="evenodd" d="M396.89 71.0255L378.231 1.38686L383.778 1.38681L402.107 71.0255L396.89 71.0255Z" fill="#02075D"/>
<path d="M41.748 43.3418C41.748 41.0332 39.7793 39.4629 35.8418 38.6309C33.4746 38.127 31.8281 37.4824 30.9023 36.6973C29.9766 35.9004 29.5137 34.8105 29.5137 33.4277C29.5137 32.0332 30.0996 30.8848 31.2715 29.9824C32.4551 29.0801 33.9902 28.6289 35.877 28.6289C37.9277 28.6289 39.5742 29.1211 40.8164 30.1055C42.0586 31.0781 42.6797 32.3965 42.6797 34.0605H41.7129C41.7129 32.7832 41.1738 31.7168 40.0957 30.8613C39.0176 30.0059 37.6113 29.5781 35.877 29.5781C34.2129 29.5781 32.8945 29.9414 31.9219 30.668C30.9492 31.3945 30.4629 32.3027 30.4629 33.3926C30.4629 34.248 30.6445 34.9219 31.0078 35.4141C31.3711 35.8945 31.9629 36.334 32.7832 36.7324C33.6035 37.1191 34.7988 37.4941 36.3691 37.8574C37.9395 38.2207 39.1816 38.6484 40.0957 39.1406C41.0098 39.6328 41.6719 40.2188 42.082 40.8984C42.4922 41.5664 42.6973 42.3867 42.6973 43.3594C42.6973 44.8594 42.082 46.0664 40.8516 46.9805C39.6211 47.8945 38.0098 48.3516 36.0176 48.3516C33.8848 48.3516 32.1621 47.8711 30.8496 46.9102C29.5488 45.9375 28.8984 44.6895 28.8984 43.166H29.8477C29.9414 44.502 30.5273 45.5449 31.6055 46.2949C32.6953 47.0332 34.166 47.4023 36.0176 47.4023C37.7168 47.4023 39.0938 47.0098 40.1484 46.2246C41.2148 45.4277 41.748 44.4668 41.748 43.3418ZM49.1309 48H48.1816V28.9805H49.1309V48ZM47.6895 23.0391C47.6895 22.7695 47.7832 22.541 47.9707 22.3535C48.1582 22.1543 48.3867 22.0547 48.6562 22.0547C48.9258 22.0547 49.1543 22.1543 49.3418 22.3535C49.541 22.541 49.6406 22.7695 49.6406 23.0391C49.6406 23.3086 49.541 23.5371 49.3418 23.7246C49.1543 23.9121 48.9258 24.0059 48.6562 24.0059C48.3867 24.0059 48.1582 23.9121 47.9707 23.7246C47.7832 23.5371 47.6895 23.3086 47.6895 23.0391ZM56.3203 33.4102C56.9414 31.9336 57.8555 30.7676 59.0625 29.9121C60.2695 29.0566 61.6055 28.6289 63.0703 28.6289C65.1094 28.6289 66.6211 29.209 67.6055 30.3691C68.6016 31.5176 69.1055 33.2578 69.1172 35.5898V48H68.168V35.5547C68.1562 33.5156 67.7402 32.0098 66.9199 31.0371C66.0996 30.0527 64.7988 29.5605 63.0176 29.5605C61.377 29.5605 59.9531 30.1465 58.7461 31.3184C57.5508 32.4785 56.7422 33.9785 56.3203 35.8184V48H55.3711V28.9805H56.3203V33.4102ZM74.1973 38.2969C74.1973 35.2617 74.8359 32.8945 76.1133 31.1953C77.3906 29.4844 79.1426 28.6289 81.3691 28.6289C82.7871 28.6289 84.0469 28.957 85.1484 29.6133C86.25 30.2578 87.1348 31.207 87.8027 32.4609V28.9805H88.7695V47.666C88.7695 50.1738 88.125 52.1309 86.8359 53.5371C85.5469 54.9551 83.7949 55.6641 81.5801 55.6641C80.3027 55.6641 79.1309 55.3887 78.0645 54.8379C77.0098 54.2871 76.1074 53.4961 75.3574 52.4648L76.0254 51.832C76.7637 52.7695 77.5723 53.4844 78.4512 53.9766C79.3301 54.4805 80.3613 54.7324 81.5449 54.7324C83.502 54.7324 85.0254 54.1348 86.1152 52.9395C87.2051 51.7559 87.7676 50.0801 87.8027 47.9121V44.9941C87.1465 46.0723 86.2559 46.9043 85.1309 47.4902C84.0176 48.0645 82.752 48.3516 81.334 48.3516C79.1309 48.3516 77.3906 47.4785 76.1133 45.7324C74.8359 43.9863 74.1973 41.5898 74.1973 38.543V38.2969ZM75.1641 38.666C75.1641 41.3848 75.7031 43.5234 76.7812 45.082C77.8594 46.6289 79.3711 47.4023 81.3164 47.4023C82.9219 47.4023 84.2871 47.0332 85.4121 46.2949C86.5371 45.5449 87.334 44.4961 87.8027 43.1484V34.5176C86.7715 31.2246 84.6211 29.5781 81.3516 29.5781C79.3945 29.5781 77.8711 30.3457 76.7812 31.8809C75.7031 33.416 75.1641 35.6777 75.1641 38.666ZM96.0293 48H95.0801V21H96.0293V48ZM109.107 48.3516C107.572 48.3516 106.16 47.9414 104.871 47.1211C103.594 46.2891 102.592 45.1523 101.865 43.7109C101.139 42.2695 100.775 40.6699 100.775 38.9121V38.1211C100.775 36.3633 101.127 34.752 101.83 33.2871C102.533 31.8223 103.5 30.6797 104.73 29.8594C105.961 29.0391 107.303 28.6289 108.756 28.6289C110.877 28.6289 112.611 29.3848 113.959 30.8965C115.307 32.4082 115.98 34.3945 115.98 36.8555V37.8574H101.725V38.8945C101.725 40.4414 102.047 41.877 102.691 43.2012C103.348 44.5137 104.244 45.5449 105.381 46.2949C106.529 47.0449 107.771 47.4199 109.107 47.4199C110.385 47.4199 111.469 47.209 112.359 46.7871C113.262 46.3535 114.059 45.6914 114.75 44.8008L115.418 45.2754C114 47.3262 111.896 48.3516 109.107 48.3516ZM108.756 29.5781C106.904 29.5781 105.334 30.2695 104.045 31.6523C102.756 33.0234 102 34.7754 101.777 36.9082H115.031V36.6797C115.031 35.3906 114.756 34.1953 114.205 33.0938C113.666 31.9805 112.916 31.1191 111.955 30.5098C111.006 29.8887 109.939 29.5781 108.756 29.5781ZM143.561 38.666C143.561 41.6309 142.922 43.9863 141.645 45.7324C140.367 47.4785 138.627 48.3516 136.424 48.3516C134.982 48.3516 133.699 48.0586 132.574 47.4727C131.449 46.8867 130.57 46.0781 129.938 45.0469V55.3125H128.988V28.9805H129.938V32.373C130.594 31.166 131.479 30.2402 132.592 29.5957C133.705 28.9512 134.971 28.6289 136.389 28.6289C138.615 28.6289 140.367 29.4844 141.645 31.1953C142.922 32.8945 143.561 35.2852 143.561 38.3672V38.666ZM142.594 38.2969C142.594 35.5664 142.049 33.4336 140.959 31.8984C139.881 30.3516 138.363 29.5781 136.406 29.5781C134.812 29.5781 133.459 29.9941 132.346 30.8262C131.232 31.6465 130.43 32.8301 129.938 34.377V43.2715C130.43 44.584 131.232 45.6035 132.346 46.3301C133.471 47.0449 134.836 47.4023 136.441 47.4023C138.387 47.4023 139.898 46.6289 140.977 45.082C142.055 43.5352 142.594 41.2734 142.594 38.2969ZM161.033 48C160.799 47.1914 160.682 46.0312 160.682 44.5195C159.932 45.7383 158.906 46.6816 157.605 47.3496C156.305 48.0176 154.834 48.3516 153.193 48.3516C151.436 48.3516 150.018 47.877 148.939 46.9277C147.873 45.9668 147.34 44.7188 147.34 43.1836C147.34 41.4375 148.125 40.043 149.695 39C151.277 37.9453 153.375 37.4062 155.988 37.3828H160.682V34.6055C160.682 33.0117 160.178 31.7754 159.17 30.8965C158.174 30.0176 156.744 29.5781 154.881 29.5781C153.146 29.5781 151.699 30.0234 150.539 30.9141C149.379 31.8047 148.799 32.9062 148.799 34.2188L147.85 34.1836C147.85 32.6367 148.529 31.3242 149.889 30.2461C151.248 29.168 152.912 28.6289 154.881 28.6289C156.932 28.6289 158.561 29.1445 159.768 30.1758C160.975 31.1953 161.596 32.6367 161.631 34.5V43.5879C161.631 45.6738 161.795 47.0918 162.123 47.8418V48H161.033ZM153.193 47.4199C154.975 47.4199 156.504 47.0215 157.781 46.2246C159.07 45.4277 160.037 44.3086 160.682 42.8672V38.3496H156.287C153.568 38.3496 151.488 38.8887 150.047 39.9668C148.875 40.8457 148.289 41.9414 148.289 43.2539C148.289 44.4141 148.752 45.3984 149.678 46.207C150.604 47.0156 151.775 47.4199 153.193 47.4199ZM166.869 38.2969C166.869 35.2617 167.508 32.8945 168.785 31.1953C170.062 29.4844 171.814 28.6289 174.041 28.6289C175.459 28.6289 176.719 28.957 177.82 29.6133C178.922 30.2578 179.807 31.207 180.475 32.4609V28.9805H181.441V47.666C181.441 50.1738 180.797 52.1309 179.508 53.5371C178.219 54.9551 176.467 55.6641 174.252 55.6641C172.975 55.6641 171.803 55.3887 170.736 54.8379C169.682 54.2871 168.779 53.4961 168.029 52.4648L168.697 51.832C169.436 52.7695 170.244 53.4844 171.123 53.9766C172.002 54.4805 173.033 54.7324 174.217 54.7324C176.174 54.7324 177.697 54.1348 178.787 52.9395C179.877 51.7559 180.439 50.0801 180.475 47.9121V44.9941C179.818 46.0723 178.928 46.9043 177.803 47.4902C176.689 48.0645 175.424 48.3516 174.006 48.3516C171.803 48.3516 170.062 47.4785 168.785 45.7324C167.508 43.9863 166.869 41.5898 166.869 38.543V38.2969ZM167.836 38.666C167.836 41.3848 168.375 43.5234 169.453 45.082C170.531 46.6289 172.043 47.4023 173.988 47.4023C175.594 47.4023 176.959 47.0332 178.084 46.2949C179.209 45.5449 180.006 44.4961 180.475 43.1484V34.5176C179.443 31.2246 177.293 29.5781 174.023 29.5781C172.066 29.5781 170.543 30.3457 169.453 31.8809C168.375 33.416 167.836 35.6777 167.836 38.666ZM194.361 48.3516C192.826 48.3516 191.414 47.9414 190.125 47.1211C188.848 46.2891 187.846 45.1523 187.119 43.7109C186.393 42.2695 186.029 40.6699 186.029 38.9121V38.1211C186.029 36.3633 186.381 34.752 187.084 33.2871C187.787 31.8223 188.754 30.6797 189.984 29.8594C191.215 29.0391 192.557 28.6289 194.01 28.6289C196.131 28.6289 197.865 29.3848 199.213 30.8965C200.561 32.4082 201.234 34.3945 201.234 36.8555V37.8574H186.979V38.8945C186.979 40.4414 187.301 41.877 187.945 43.2012C188.602 44.5137 189.498 45.5449 190.635 46.2949C191.783 47.0449 193.025 47.4199 194.361 47.4199C195.639 47.4199 196.723 47.209 197.613 46.7871C198.516 46.3535 199.312 45.6914 200.004 44.8008L200.672 45.2754C199.254 47.3262 197.15 48.3516 194.361 48.3516ZM194.01 29.5781C192.158 29.5781 190.588 30.2695 189.299 31.6523C188.01 33.0234 187.254 34.7754 187.031 36.9082H200.285V36.6797C200.285 35.3906 200.01 34.1953 199.459 33.0938C198.92 31.9805 198.17 31.1191 197.209 30.5098C196.26 29.8887 195.193 29.5781 194.01 29.5781ZM222.662 29.666L221.432 29.5605C219.814 29.5605 218.461 30.0879 217.371 31.1426C216.281 32.1855 215.566 33.6504 215.227 35.5371V48H214.277V28.9805H215.227V32.9355C215.742 31.6113 216.516 30.5625 217.547 29.7891C218.578 29.0156 219.873 28.6289 221.432 28.6289C221.982 28.6289 222.428 28.6934 222.768 28.8223L222.662 29.666ZM232.822 48.3516C231.287 48.3516 229.875 47.9414 228.586 47.1211C227.309 46.2891 226.307 45.1523 225.58 43.7109C224.854 42.2695 224.49 40.6699 224.49 38.9121V38.1211C224.49 36.3633 224.842 34.752 225.545 33.2871C226.248 31.8223 227.215 30.6797 228.445 29.8594C229.676 29.0391 231.018 28.6289 232.471 28.6289C234.592 28.6289 236.326 29.3848 237.674 30.8965C239.021 32.4082 239.695 34.3945 239.695 36.8555V37.8574H225.439V38.8945C225.439 40.4414 225.762 41.877 226.406 43.2012C227.062 44.5137 227.959 45.5449 229.096 46.2949C230.244 47.0449 231.486 47.4199 232.822 47.4199C234.1 47.4199 235.184 47.209 236.074 46.7871C236.977 46.3535 237.773 45.6914 238.465 44.8008L239.133 45.2754C237.715 47.3262 235.611 48.3516 232.822 48.3516ZM232.471 29.5781C230.619 29.5781 229.049 30.2695 227.76 31.6523C226.471 33.0234 225.715 34.7754 225.492 36.9082H238.746V36.6797C238.746 35.3906 238.471 34.1953 237.92 33.0938C237.381 31.9805 236.631 31.1191 235.67 30.5098C234.721 29.8887 233.654 29.5781 232.471 29.5781ZM256.412 48C256.178 47.1914 256.061 46.0312 256.061 44.5195C255.311 45.7383 254.285 46.6816 252.984 47.3496C251.684 48.0176 250.213 48.3516 248.572 48.3516C246.814 48.3516 245.396 47.877 244.318 46.9277C243.252 45.9668 242.719 44.7188 242.719 43.1836C242.719 41.4375 243.504 40.043 245.074 39C246.656 37.9453 248.754 37.4062 251.367 37.3828H256.061V34.6055C256.061 33.0117 255.557 31.7754 254.549 30.8965C253.553 30.0176 252.123 29.5781 250.26 29.5781C248.525 29.5781 247.078 30.0234 245.918 30.9141C244.758 31.8047 244.178 32.9062 244.178 34.2188L243.229 34.1836C243.229 32.6367 243.908 31.3242 245.268 30.2461C246.627 29.168 248.291 28.6289 250.26 28.6289C252.311 28.6289 253.939 29.1445 255.146 30.1758C256.354 31.1953 256.975 32.6367 257.01 34.5V43.5879C257.01 45.6738 257.174 47.0918 257.502 47.8418V48H256.412ZM248.572 47.4199C250.354 47.4199 251.883 47.0215 253.16 46.2246C254.449 45.4277 255.416 44.3086 256.061 42.8672V38.3496H251.666C248.947 38.3496 246.867 38.8887 245.426 39.9668C244.254 40.8457 243.668 41.9414 243.668 43.2539C243.668 44.4141 244.131 45.3984 245.057 46.207C245.982 47.0156 247.154 47.4199 248.572 47.4199ZM269.596 47.4023C271.318 47.4023 272.736 46.9453 273.85 46.0312C274.975 45.1172 275.59 43.8516 275.695 42.2344H276.645C276.551 44.0742 275.842 45.5566 274.518 46.6816C273.193 47.7949 271.553 48.3516 269.596 48.3516C267.217 48.3516 265.324 47.4902 263.918 45.7676C262.523 44.0449 261.826 41.707 261.826 38.7539V38.1211C261.826 35.2383 262.523 32.9355 263.918 31.2129C265.324 29.4902 267.205 28.6289 269.561 28.6289C271.576 28.6289 273.24 29.2324 274.553 30.4395C275.865 31.6465 276.562 33.252 276.645 35.2559H275.695C275.613 33.5449 275.01 32.1738 273.885 31.1426C272.771 30.0996 271.33 29.5781 269.561 29.5781C267.439 29.5781 265.775 30.3457 264.568 31.8809C263.373 33.4043 262.775 35.5254 262.775 38.2441V38.8594C262.775 41.5195 263.379 43.6113 264.586 45.1348C265.805 46.6465 267.475 47.4023 269.596 47.4023ZM283.553 23.8477V28.9805H287.877V29.9473H283.553V43.4473C283.553 44.7949 283.77 45.791 284.203 46.4355C284.648 47.0801 285.387 47.4023 286.418 47.4023C286.934 47.4023 287.561 47.3496 288.299 47.2441L288.457 48.1406C288.07 48.2812 287.408 48.3516 286.471 48.3516C285.088 48.3516 284.098 47.9707 283.5 47.209C282.902 46.4355 282.598 45.2227 282.586 43.5703V29.9473H279.07V28.9805H282.586V23.8477H283.553ZM313.717 48C313.482 47.1914 313.365 46.0312 313.365 44.5195C312.615 45.7383 311.59 46.6816 310.289 47.3496C308.988 48.0176 307.518 48.3516 305.877 48.3516C304.119 48.3516 302.701 47.877 301.623 46.9277C300.557 45.9668 300.023 44.7188 300.023 43.1836C300.023 41.4375 300.809 40.043 302.379 39C303.961 37.9453 306.059 37.4062 308.672 37.3828H313.365V34.6055C313.365 33.0117 312.861 31.7754 311.854 30.8965C310.857 30.0176 309.428 29.5781 307.564 29.5781C305.83 29.5781 304.383 30.0234 303.223 30.9141C302.062 31.8047 301.482 32.9062 301.482 34.2188L300.533 34.1836C300.533 32.6367 301.213 31.3242 302.572 30.2461C303.932 29.168 305.596 28.6289 307.564 28.6289C309.615 28.6289 311.244 29.1445 312.451 30.1758C313.658 31.1953 314.279 32.6367 314.314 34.5V43.5879C314.314 45.6738 314.479 47.0918 314.807 47.8418V48H313.717ZM305.877 47.4199C307.658 47.4199 309.188 47.0215 310.465 46.2246C311.754 45.4277 312.721 44.3086 313.365 42.8672V38.3496H308.971C306.252 38.3496 304.172 38.8887 302.73 39.9668C301.559 40.8457 300.973 41.9414 300.973 43.2539C300.973 44.4141 301.436 45.3984 302.361 46.207C303.287 47.0156 304.459 47.4199 305.877 47.4199ZM334.986 38.666C334.986 41.6309 334.348 43.9863 333.07 45.7324C331.793 47.4785 330.053 48.3516 327.85 48.3516C326.408 48.3516 325.125 48.0586 324 47.4727C322.875 46.8867 321.996 46.0781 321.363 45.0469V55.3125H320.414V28.9805H321.363V32.373C322.02 31.166 322.904 30.2402 324.018 29.5957C325.131 28.9512 326.396 28.6289 327.814 28.6289C330.041 28.6289 331.793 29.4844 333.07 31.1953C334.348 32.8945 334.986 35.2852 334.986 38.3672V38.666ZM334.02 38.2969C334.02 35.5664 333.475 33.4336 332.385 31.8984C331.307 30.3516 329.789 29.5781 327.832 29.5781C326.238 29.5781 324.885 29.9941 323.771 30.8262C322.658 31.6465 321.855 32.8301 321.363 34.377V43.2715C321.855 44.584 322.658 45.6035 323.771 46.3301C324.896 47.0449 326.262 47.4023 327.867 47.4023C329.812 47.4023 331.324 46.6289 332.402 45.082C333.48 43.5352 334.02 41.2734 334.02 38.2969ZM354.709 38.666C354.709 41.6309 354.07 43.9863 352.793 45.7324C351.516 47.4785 349.775 48.3516 347.572 48.3516C346.131 48.3516 344.848 48.0586 343.723 47.4727C342.598 46.8867 341.719 46.0781 341.086 45.0469V55.3125H340.137V28.9805H341.086V32.373C341.742 31.166 342.627 30.2402 343.74 29.5957C344.854 28.9512 346.119 28.6289 347.537 28.6289C349.764 28.6289 351.516 29.4844 352.793 31.1953C354.07 32.8945 354.709 35.2852 354.709 38.3672V38.666ZM353.742 38.2969C353.742 35.5664 353.197 33.4336 352.107 31.8984C351.029 30.3516 349.512 29.5781 347.555 29.5781C345.961 29.5781 344.607 29.9941 343.494 30.8262C342.381 31.6465 341.578 32.8301 341.086 34.377V43.2715C341.578 44.584 342.381 45.6035 343.494 46.3301C344.619 47.0449 345.984 47.4023 347.59 47.4023C349.535 47.4023 351.047 46.6289 352.125 45.082C353.203 43.5352 353.742 41.2734 353.742 38.2969ZM371.619 43.3418C371.619 41.0332 369.65 39.4629 365.713 38.6309C363.346 38.127 361.699 37.4824 360.773 36.6973C359.848 35.9004 359.385 34.8105 359.385 33.4277C359.385 32.0332 359.971 30.8848 361.143 29.9824C362.326 29.0801 363.861 28.6289 365.748 28.6289C367.799 28.6289 369.445 29.1211 370.688 30.1055C371.93 31.0781 372.551 32.3965 372.551 34.0605H371.584C371.584 32.7832 371.045 31.7168 369.967 30.8613C368.889 30.0059 367.482 29.5781 365.748 29.5781C364.084 29.5781 362.766 29.9414 361.793 30.668C360.82 31.3945 360.334 32.3027 360.334 33.3926C360.334 34.248 360.516 34.9219 360.879 35.4141C361.242 35.8945 361.834 36.334 362.654 36.7324C363.475 37.1191 364.67 37.4941 366.24 37.8574C367.811 38.2207 369.053 38.6484 369.967 39.1406C370.881 39.6328 371.543 40.2188 371.953 40.8984C372.363 41.5664 372.568 42.3867 372.568 43.3594C372.568 44.8594 371.953 46.0664 370.723 46.9805C369.492 47.8945 367.881 48.3516 365.889 48.3516C363.756 48.3516 362.033 47.8711 360.721 46.9102C359.42 45.9375 358.77 44.6895 358.77 43.166H359.719C359.812 44.502 360.398 45.5449 361.477 46.2949C362.566 47.0332 364.037 47.4023 365.889 47.4023C367.588 47.4023 368.965 47.0098 370.02 46.2246C371.086 45.4277 371.619 44.4668 371.619 43.3418Z" fill="#02075D"/>
</svg>
