<svg width="316" height="74" viewBox="0 0 316 74" fill="none" xmlns="http://www.w3.org/2000/svg">
<path d="M67.0833 52.8884C62.8829 52.8884 59.4652 51.5137 56.8304 48.7644C54.1955 45.9959 52.8781 42.3014 52.8781 37.6808V36.7071C52.8781 33.6331 53.4605 30.8933 54.6251 28.4876C55.8089 26.0627 57.4509 24.1725 59.5511 22.8169C61.6705 21.4422 63.9616 20.7549 66.4246 20.7549C70.4532 20.7549 73.5845 22.0818 75.8184 24.7358C78.0523 27.3897 79.1692 31.1892 79.1692 36.1343V38.3396H58.1764C58.2528 41.3944 59.1406 43.867 60.8399 45.7572C62.5583 47.6283 64.7349 48.5639 67.3697 48.5639C69.2408 48.5639 70.8256 48.182 72.1239 47.4183C73.4222 46.6546 74.5582 45.6426 75.532 44.3825L78.7683 46.9028C76.1716 50.8932 72.2766 52.8884 67.0833 52.8884ZM66.4246 25.1081C64.2862 25.1081 62.4915 25.8909 61.0404 27.4565C59.5893 29.0031 58.6919 31.1797 58.3483 33.9863H73.8709V33.5854C73.7182 30.8933 72.9926 28.8121 71.6943 27.342C70.396 25.8527 68.6394 25.1081 66.4246 25.1081Z" fill="#02075D"/>
<path d="M111.561 37.1653C111.561 41.9004 110.472 45.7095 108.296 48.5925C106.119 51.4565 103.198 52.8884 99.5319 52.8884C95.6179 52.8884 92.5916 51.5042 90.4532 48.7357L90.1954 52.3157H85.3267V8.32532H90.625V24.7358C92.7634 22.0818 95.7133 20.7549 99.4746 20.7549C103.236 20.7549 106.186 22.1773 108.324 25.0222C110.482 27.867 111.561 31.762 111.561 36.7071V37.1653ZM106.262 36.5639C106.262 32.9553 105.565 30.1677 104.172 28.2012C102.778 26.2346 100.773 25.2513 98.1572 25.2513C94.6632 25.2513 92.1525 26.8742 90.625 30.12V43.5233C92.2479 46.7691 94.7778 48.392 98.2145 48.392C100.754 48.392 102.73 47.4087 104.143 45.4422C105.556 43.4756 106.262 40.5162 106.262 36.5639Z" fill="#02075D"/>
<path d="M131.121 52.8884C126.921 52.8884 123.503 51.5137 120.868 48.7644C118.234 45.9959 116.916 42.3014 116.916 37.6808V36.7071C116.916 33.6331 117.498 30.8933 118.663 28.4876C119.847 26.0627 121.489 24.1725 123.589 22.8169C125.708 21.4422 128 20.7549 130.463 20.7549C134.491 20.7549 137.623 22.0818 139.856 24.7358C142.09 27.3897 143.207 31.1892 143.207 36.1343V38.3396H122.214C122.291 41.3944 123.179 43.867 124.878 45.7572C126.596 47.6283 128.773 48.5639 131.408 48.5639C133.279 48.5639 134.864 48.182 136.162 47.4183C137.46 46.6546 138.596 45.6426 139.57 44.3825L142.806 46.9028C140.21 50.8932 136.315 52.8884 131.121 52.8884ZM130.463 25.1081C128.324 25.1081 126.529 25.8909 125.078 27.4565C123.627 29.0031 122.73 31.1797 122.386 33.9863H137.909V33.5854C137.756 30.8933 137.031 28.8121 135.732 27.342C134.434 25.8527 132.677 25.1081 130.463 25.1081Z" fill="#02075D"/>
<path d="M164.343 26.0818C163.541 25.9482 162.673 25.8814 161.737 25.8814C158.262 25.8814 155.904 27.3611 154.663 30.3205V52.3157H149.365V21.3277H154.52L154.606 24.9076C156.343 22.1391 158.806 20.7549 161.995 20.7549C163.026 20.7549 163.809 20.8885 164.343 21.1558V26.0818Z" fill="#02075D"/>
<path opacity="0.15" fill-rule="evenodd" clip-rule="evenodd" d="M24.7694 71.8606L6.1098 2.22189L10.9976 2.22189L30 71.8606L24.7694 71.8606Z" fill="#02075D"/>
<path opacity="0.15" fill-rule="evenodd" clip-rule="evenodd" d="M42 71.8606L23.3404 2.22195L28.8878 2.2219L47.2171 71.8606L42 71.8606Z" fill="#02075D"/>
<path d="M28.4009 21.7668L21.6133 45.4517L19.5513 52.7548H24.6777L33.6992 21.7668H28.4009Z" fill="#02075D"/>
<path d="M45.8496 21.7668L39.062 45.4517L37 52.7548H42.1265L51.1479 21.7668H45.8496Z" fill="#02075D"/>
<path fill-rule="evenodd" clip-rule="evenodd" d="M17 25.9999L6 25.9999L5 21.9999L16 21.9999L17 25.9999Z" fill="#02075D"/>
<path d="M177.688 53V18.875H187.133C189.773 18.875 192.164 19.5 194.305 20.75C196.445 22 198.125 23.7578 199.344 26.0234C200.562 28.2734 201.188 30.7969 201.219 33.5938V38.0234C201.219 40.8672 200.617 43.4297 199.414 45.7109C198.227 47.9922 196.562 49.7734 194.422 51.0547C192.281 52.3359 189.891 52.9844 187.25 53H177.688ZM178.953 20.1406V51.7344H187.133C189.523 51.7344 191.695 51.1562 193.648 50C195.617 48.8281 197.156 47.2031 198.266 45.125C199.375 43.0312 199.938 40.7109 199.953 38.1641V33.7812C199.953 31.2344 199.406 28.9219 198.312 26.8438C197.234 24.7656 195.719 23.1406 193.766 21.9688C191.828 20.7812 189.68 20.1719 187.32 20.1406H178.953ZM217.555 53.4688C215.508 53.4688 213.625 52.9219 211.906 51.8281C210.203 50.7188 208.867 49.2031 207.898 47.2812C206.93 45.3594 206.445 43.2266 206.445 40.8828V39.8281C206.445 37.4844 206.914 35.3359 207.852 33.3828C208.789 31.4297 210.078 29.9062 211.719 28.8125C213.359 27.7188 215.148 27.1719 217.086 27.1719C219.914 27.1719 222.227 28.1797 224.023 30.1953C225.82 32.2109 226.719 34.8594 226.719 38.1406V39.4766H207.711V40.8594C207.711 42.9219 208.141 44.8359 209 46.6016C209.875 48.3516 211.07 49.7266 212.586 50.7266C214.117 51.7266 215.773 52.2266 217.555 52.2266C219.258 52.2266 220.703 51.9453 221.891 51.3828C223.094 50.8047 224.156 49.9219 225.078 48.7344L225.969 49.3672C224.078 52.1016 221.273 53.4688 217.555 53.4688ZM217.086 28.4375C214.617 28.4375 212.523 29.3594 210.805 31.2031C209.086 33.0312 208.078 35.3672 207.781 38.2109H225.453V37.9062C225.453 36.1875 225.086 34.5938 224.352 33.125C223.633 31.6406 222.633 30.4922 221.352 29.6797C220.086 28.8516 218.664 28.4375 217.086 28.4375ZM248.258 46.7891C248.258 43.7109 245.633 41.6172 240.383 40.5078C237.227 39.8359 235.031 38.9766 233.797 37.9297C232.562 36.8672 231.945 35.4141 231.945 33.5703C231.945 31.7109 232.727 30.1797 234.289 28.9766C235.867 27.7734 237.914 27.1719 240.43 27.1719C243.164 27.1719 245.359 27.8281 247.016 29.1406C248.672 30.4375 249.5 32.1953 249.5 34.4141H248.211C248.211 32.7109 247.492 31.2891 246.055 30.1484C244.617 29.0078 242.742 28.4375 240.43 28.4375C238.211 28.4375 236.453 28.9219 235.156 29.8906C233.859 30.8594 233.211 32.0703 233.211 33.5234C233.211 34.6641 233.453 35.5625 233.938 36.2188C234.422 36.8594 235.211 37.4453 236.305 37.9766C237.398 38.4922 238.992 38.9922 241.086 39.4766C243.18 39.9609 244.836 40.5312 246.055 41.1875C247.273 41.8438 248.156 42.625 248.703 43.5312C249.25 44.4219 249.523 45.5156 249.523 46.8125C249.523 48.8125 248.703 50.4219 247.062 51.6406C245.422 52.8594 243.273 53.4688 240.617 53.4688C237.773 53.4688 235.477 52.8281 233.727 51.5469C231.992 50.25 231.125 48.5859 231.125 46.5547H232.391C232.516 48.3359 233.297 49.7266 234.734 50.7266C236.188 51.7109 238.148 52.2031 240.617 52.2031C242.883 52.2031 244.719 51.6797 246.125 50.6328C247.547 49.5703 248.258 48.2891 248.258 46.7891ZM258.102 53H256.836V27.6406H258.102V53ZM256.18 19.7188C256.18 19.3594 256.305 19.0547 256.555 18.8047C256.805 18.5391 257.109 18.4062 257.469 18.4062C257.828 18.4062 258.133 18.5391 258.383 18.8047C258.648 19.0547 258.781 19.3594 258.781 19.7188C258.781 20.0781 258.648 20.3828 258.383 20.6328C258.133 20.8828 257.828 21.0078 257.469 21.0078C257.109 21.0078 256.805 20.8828 256.555 20.6328C256.305 20.3828 256.18 20.0781 256.18 19.7188ZM265.227 40.0625C265.227 36.0156 266.078 32.8594 267.781 30.5938C269.484 28.3125 271.82 27.1719 274.789 27.1719C276.68 27.1719 278.359 27.6094 279.828 28.4844C281.297 29.3438 282.477 30.6094 283.367 32.2812V27.6406H284.656V52.5547C284.656 55.8984 283.797 58.5078 282.078 60.3828C280.359 62.2734 278.023 63.2188 275.07 63.2188C273.367 63.2188 271.805 62.8516 270.383 62.1172C268.977 61.3828 267.773 60.3281 266.773 58.9531L267.664 58.1094C268.648 59.3594 269.727 60.3125 270.898 60.9688C272.07 61.6406 273.445 61.9766 275.023 61.9766C277.633 61.9766 279.664 61.1797 281.117 59.5859C282.57 58.0078 283.32 55.7734 283.367 52.8828V48.9922C282.492 50.4297 281.305 51.5391 279.805 52.3203C278.32 53.0859 276.633 53.4688 274.742 53.4688C271.805 53.4688 269.484 52.3047 267.781 49.9766C266.078 47.6484 265.227 44.4531 265.227 40.3906V40.0625ZM266.516 40.5547C266.516 44.1797 267.234 47.0312 268.672 49.1094C270.109 51.1719 272.125 52.2031 274.719 52.2031C276.859 52.2031 278.68 51.7109 280.18 50.7266C281.68 49.7266 282.742 48.3281 283.367 46.5312V35.0234C281.992 30.6328 279.125 28.4375 274.766 28.4375C272.156 28.4375 270.125 29.4609 268.672 31.5078C267.234 33.5547 266.516 36.5703 266.516 40.5547ZM294.031 33.5469C294.859 31.5781 296.078 30.0234 297.688 28.8828C299.297 27.7422 301.078 27.1719 303.031 27.1719C305.75 27.1719 307.766 27.9453 309.078 29.4922C310.406 31.0234 311.078 33.3438 311.094 36.4531V53H309.828V36.4062C309.812 33.6875 309.258 31.6797 308.164 30.3828C307.07 29.0703 305.336 28.4141 302.961 28.4141C300.773 28.4141 298.875 29.1953 297.266 30.7578C295.672 32.3047 294.594 34.3047 294.031 36.7578V53H292.766V27.6406H294.031V33.5469Z" fill="#02075D"/>
</svg>
