<svg width="285" height="73" viewBox="0 0 285 73" fill="none" xmlns="http://www.w3.org/2000/svg">
<path opacity="0.15" fill-rule="evenodd" clip-rule="evenodd" d="M18.6597 71.0255L5.96885e-05 1.38681L4.88785 1.38681L23.8903 71.0255L18.6597 71.0255Z" fill="#02075D"/>
<path opacity="0.15" fill-rule="evenodd" clip-rule="evenodd" d="M278.89 71.0255L260.231 1.38686L265.778 1.38681L284.107 71.0255L278.89 71.0255Z" fill="#02075D"/>
<path d="M33.4336 42.498L34.4707 46.5938L40.043 28.9805H41.0098L46.5469 46.5938L47.6191 42.498L51.4863 28.9805H52.5938L47.0566 48H46.1074L41.4141 33.709L40.5176 30.2988L39.5508 33.709L34.9277 48H33.9785L28.459 28.9805H29.5488L33.4336 42.498ZM64.1074 48.3516C62.5723 48.3516 61.1602 47.9414 59.8711 47.1211C58.5938 46.2891 57.5918 45.1523 56.8652 43.7109C56.1387 42.2695 55.7754 40.6699 55.7754 38.9121V38.1211C55.7754 36.3633 56.127 34.752 56.8301 33.2871C57.5332 31.8223 58.5 30.6797 59.7305 29.8594C60.9609 29.0391 62.3027 28.6289 63.7559 28.6289C65.877 28.6289 67.6113 29.3848 68.959 30.8965C70.3066 32.4082 70.9805 34.3945 70.9805 36.8555V37.8574H56.7246V38.8945C56.7246 40.4414 57.0469 41.877 57.6914 43.2012C58.3477 44.5137 59.2441 45.5449 60.3809 46.2949C61.5293 47.0449 62.7715 47.4199 64.1074 47.4199C65.3848 47.4199 66.4688 47.209 67.3594 46.7871C68.2617 46.3535 69.0586 45.6914 69.75 44.8008L70.418 45.2754C69 47.3262 66.8965 48.3516 64.1074 48.3516ZM63.7559 29.5781C61.9043 29.5781 60.334 30.2695 59.0449 31.6523C57.7559 33.0234 57 34.7754 56.7773 36.9082H70.0312V36.6797C70.0312 35.3906 69.7559 34.1953 69.2051 33.0938C68.666 31.9805 67.916 31.1191 66.9551 30.5098C66.0059 29.8887 64.9395 29.5781 63.7559 29.5781ZM89.9473 38.666C89.9473 41.6309 89.3086 43.9863 88.0312 45.7324C86.7539 47.4785 85.0137 48.3516 82.8105 48.3516C81.3809 48.3516 80.1035 48.0586 78.9785 47.4727C77.8535 46.875 76.9688 46.0488 76.3242 44.9941V48H75.375V21H76.3242V32.4434C76.9922 31.1895 77.8711 30.2402 78.9609 29.5957C80.0625 28.9512 81.334 28.6289 82.7754 28.6289C85.002 28.6289 86.7539 29.4844 88.0312 31.1953C89.3086 32.8945 89.9473 35.2852 89.9473 38.3672V38.666ZM88.9629 38.2969C88.9629 35.5664 88.418 33.4336 87.3281 31.8984C86.25 30.3516 84.7383 29.5781 82.793 29.5781C81.1992 29.5781 79.8457 29.9883 78.7324 30.8086C77.6309 31.6289 76.8281 32.8477 76.3242 34.4648V43.1836C76.8281 44.5312 77.6309 45.5742 78.7324 46.3125C79.8457 47.0391 81.2109 47.4023 82.8281 47.4023C84.7852 47.4023 86.2969 46.623 87.3633 45.0645C88.4297 43.5059 88.9629 41.25 88.9629 38.2969ZM106.857 43.3418C106.857 41.0332 104.889 39.4629 100.951 38.6309C98.584 38.127 96.9375 37.4824 96.0117 36.6973C95.0859 35.9004 94.623 34.8105 94.623 33.4277C94.623 32.0332 95.209 30.8848 96.3809 29.9824C97.5645 29.0801 99.0996 28.6289 100.986 28.6289C103.037 28.6289 104.684 29.1211 105.926 30.1055C107.168 31.0781 107.789 32.3965 107.789 34.0605H106.822C106.822 32.7832 106.283 31.7168 105.205 30.8613C104.127 30.0059 102.721 29.5781 100.986 29.5781C99.3223 29.5781 98.0039 29.9414 97.0312 30.668C96.0586 31.3945 95.5723 32.3027 95.5723 33.3926C95.5723 34.248 95.7539 34.9219 96.1172 35.4141C96.4805 35.8945 97.0723 36.334 97.8926 36.7324C98.7129 37.1191 99.9082 37.4941 101.479 37.8574C103.049 38.2207 104.291 38.6484 105.205 39.1406C106.119 39.6328 106.781 40.2188 107.191 40.8984C107.602 41.5664 107.807 42.3867 107.807 43.3594C107.807 44.8594 107.191 46.0664 105.961 46.9805C104.73 47.8945 103.119 48.3516 101.127 48.3516C98.9941 48.3516 97.2715 47.8711 95.959 46.9102C94.6582 45.9375 94.0078 44.6895 94.0078 43.166H94.957C95.0508 44.502 95.6367 45.5449 96.7148 46.2949C97.8047 47.0332 99.2754 47.4023 101.127 47.4023C102.826 47.4023 104.203 47.0098 105.258 46.2246C106.324 45.4277 106.857 44.4668 106.857 43.3418ZM114.24 48H113.291V28.9805H114.24V48ZM112.799 23.0391C112.799 22.7695 112.893 22.541 113.08 22.3535C113.268 22.1543 113.496 22.0547 113.766 22.0547C114.035 22.0547 114.264 22.1543 114.451 22.3535C114.65 22.541 114.75 22.7695 114.75 23.0391C114.75 23.3086 114.65 23.5371 114.451 23.7246C114.264 23.9121 114.035 24.0059 113.766 24.0059C113.496 24.0059 113.268 23.9121 113.08 23.7246C112.893 23.5371 112.799 23.3086 112.799 23.0391ZM122.607 23.8477V28.9805H126.932V29.9473H122.607V43.4473C122.607 44.7949 122.824 45.791 123.258 46.4355C123.703 47.0801 124.441 47.4023 125.473 47.4023C125.988 47.4023 126.615 47.3496 127.354 47.2441L127.512 48.1406C127.125 48.2812 126.463 48.3516 125.525 48.3516C124.143 48.3516 123.152 47.9707 122.555 47.209C121.957 46.4355 121.652 45.2227 121.641 43.5703V29.9473H118.125V28.9805H121.641V23.8477H122.607ZM138.709 48.3516C137.174 48.3516 135.762 47.9414 134.473 47.1211C133.195 46.2891 132.193 45.1523 131.467 43.7109C130.74 42.2695 130.377 40.6699 130.377 38.9121V38.1211C130.377 36.3633 130.729 34.752 131.432 33.2871C132.135 31.8223 133.102 30.6797 134.332 29.8594C135.562 29.0391 136.904 28.6289 138.357 28.6289C140.479 28.6289 142.213 29.3848 143.561 30.8965C144.908 32.4082 145.582 34.3945 145.582 36.8555V37.8574H131.326V38.8945C131.326 40.4414 131.648 41.877 132.293 43.2012C132.949 44.5137 133.846 45.5449 134.982 46.2949C136.131 47.0449 137.373 47.4199 138.709 47.4199C139.986 47.4199 141.07 47.209 141.961 46.7871C142.863 46.3535 143.66 45.6914 144.352 44.8008L145.02 45.2754C143.602 47.3262 141.498 48.3516 138.709 48.3516ZM138.357 29.5781C136.506 29.5781 134.936 30.2695 133.646 31.6523C132.357 33.0234 131.602 34.7754 131.379 36.9082H144.633V36.6797C144.633 35.3906 144.357 34.1953 143.807 33.0938C143.268 31.9805 142.518 31.1191 141.557 30.5098C140.607 29.8887 139.541 29.5781 138.357 29.5781ZM157.746 38.2969C157.746 35.2617 158.385 32.8945 159.662 31.1953C160.939 29.4844 162.691 28.6289 164.918 28.6289C166.348 28.6289 167.607 28.9512 168.697 29.5957C169.799 30.2402 170.689 31.2012 171.369 32.4785V21H172.318V48H171.369V44.959C170.725 46.0371 169.84 46.875 168.715 47.4727C167.59 48.0586 166.312 48.3516 164.883 48.3516C162.68 48.3516 160.939 47.4785 159.662 45.7324C158.385 43.9863 157.746 41.5898 157.746 38.543V38.2969ZM158.73 38.666C158.73 41.3613 159.264 43.4941 160.33 45.0645C161.396 46.623 162.908 47.4023 164.865 47.4023C166.436 47.4023 167.777 47.0566 168.891 46.3652C170.004 45.6621 170.83 44.6367 171.369 43.2891V34.377C170.279 31.1777 168.123 29.5781 164.9 29.5781C162.955 29.5781 161.438 30.3457 160.348 31.8809C159.27 33.416 158.73 35.6777 158.73 38.666ZM185.186 48.3516C183.65 48.3516 182.238 47.9414 180.949 47.1211C179.672 46.2891 178.67 45.1523 177.943 43.7109C177.217 42.2695 176.854 40.6699 176.854 38.9121V38.1211C176.854 36.3633 177.205 34.752 177.908 33.2871C178.611 31.8223 179.578 30.6797 180.809 29.8594C182.039 29.0391 183.381 28.6289 184.834 28.6289C186.955 28.6289 188.689 29.3848 190.037 30.8965C191.385 32.4082 192.059 34.3945 192.059 36.8555V37.8574H177.803V38.8945C177.803 40.4414 178.125 41.877 178.77 43.2012C179.426 44.5137 180.322 45.5449 181.459 46.2949C182.607 47.0449 183.85 47.4199 185.186 47.4199C186.463 47.4199 187.547 47.209 188.438 46.7871C189.34 46.3535 190.137 45.6914 190.828 44.8008L191.496 45.2754C190.078 47.3262 187.975 48.3516 185.186 48.3516ZM184.834 29.5781C182.982 29.5781 181.412 30.2695 180.123 31.6523C178.834 33.0234 178.078 34.7754 177.855 36.9082H191.109V36.6797C191.109 35.3906 190.834 34.1953 190.283 33.0938C189.744 31.9805 188.994 31.1191 188.033 30.5098C187.084 29.8887 186.018 29.5781 184.834 29.5781ZM208.213 43.3418C208.213 41.0332 206.244 39.4629 202.307 38.6309C199.939 38.127 198.293 37.4824 197.367 36.6973C196.441 35.9004 195.979 34.8105 195.979 33.4277C195.979 32.0332 196.564 30.8848 197.736 29.9824C198.92 29.0801 200.455 28.6289 202.342 28.6289C204.393 28.6289 206.039 29.1211 207.281 30.1055C208.523 31.0781 209.145 32.3965 209.145 34.0605H208.178C208.178 32.7832 207.639 31.7168 206.561 30.8613C205.482 30.0059 204.076 29.5781 202.342 29.5781C200.678 29.5781 199.359 29.9414 198.387 30.668C197.414 31.3945 196.928 32.3027 196.928 33.3926C196.928 34.248 197.109 34.9219 197.473 35.4141C197.836 35.8945 198.428 36.334 199.248 36.7324C200.068 37.1191 201.264 37.4941 202.834 37.8574C204.404 38.2207 205.646 38.6484 206.561 39.1406C207.475 39.6328 208.137 40.2188 208.547 40.8984C208.957 41.5664 209.162 42.3867 209.162 43.3594C209.162 44.8594 208.547 46.0664 207.316 46.9805C206.086 47.8945 204.475 48.3516 202.482 48.3516C200.35 48.3516 198.627 47.8711 197.314 46.9102C196.014 45.9375 195.363 44.6895 195.363 43.166H196.312C196.406 44.502 196.992 45.5449 198.07 46.2949C199.16 47.0332 200.631 47.4023 202.482 47.4023C204.182 47.4023 205.559 47.0098 206.613 46.2246C207.68 45.4277 208.213 44.4668 208.213 43.3418ZM215.596 48H214.646V28.9805H215.596V48ZM214.154 23.0391C214.154 22.7695 214.248 22.541 214.436 22.3535C214.623 22.1543 214.852 22.0547 215.121 22.0547C215.391 22.0547 215.619 22.1543 215.807 22.3535C216.006 22.541 216.105 22.7695 216.105 23.0391C216.105 23.3086 216.006 23.5371 215.807 23.7246C215.619 23.9121 215.391 24.0059 215.121 24.0059C214.852 24.0059 214.623 23.9121 214.436 23.7246C214.248 23.5371 214.154 23.3086 214.154 23.0391ZM220.939 38.2969C220.939 35.2617 221.578 32.8945 222.855 31.1953C224.133 29.4844 225.885 28.6289 228.111 28.6289C229.529 28.6289 230.789 28.957 231.891 29.6133C232.992 30.2578 233.877 31.207 234.545 32.4609V28.9805H235.512V47.666C235.512 50.1738 234.867 52.1309 233.578 53.5371C232.289 54.9551 230.537 55.6641 228.322 55.6641C227.045 55.6641 225.873 55.3887 224.807 54.8379C223.752 54.2871 222.85 53.4961 222.1 52.4648L222.768 51.832C223.506 52.7695 224.314 53.4844 225.193 53.9766C226.072 54.4805 227.104 54.7324 228.287 54.7324C230.244 54.7324 231.768 54.1348 232.857 52.9395C233.947 51.7559 234.51 50.0801 234.545 47.9121V44.9941C233.889 46.0723 232.998 46.9043 231.873 47.4902C230.76 48.0645 229.494 48.3516 228.076 48.3516C225.873 48.3516 224.133 47.4785 222.855 45.7324C221.578 43.9863 220.939 41.5898 220.939 38.543V38.2969ZM221.906 38.666C221.906 41.3848 222.445 43.5234 223.523 45.082C224.602 46.6289 226.113 47.4023 228.059 47.4023C229.664 47.4023 231.029 47.0332 232.154 46.2949C233.279 45.5449 234.076 44.4961 234.545 43.1484V34.5176C233.514 31.2246 231.363 29.5781 228.094 29.5781C226.137 29.5781 224.613 30.3457 223.523 31.8809C222.445 33.416 221.906 35.6777 221.906 38.666ZM242.543 33.4102C243.164 31.9336 244.078 30.7676 245.285 29.9121C246.492 29.0566 247.828 28.6289 249.293 28.6289C251.332 28.6289 252.844 29.209 253.828 30.3691C254.824 31.5176 255.328 33.2578 255.34 35.5898V48H254.391V35.5547C254.379 33.5156 253.963 32.0098 253.143 31.0371C252.322 30.0527 251.021 29.5605 249.24 29.5605C247.6 29.5605 246.176 30.1465 244.969 31.3184C243.773 32.4785 242.965 33.9785 242.543 35.8184V48H241.594V28.9805H242.543V33.4102Z" fill="#02075D"/>
</svg>
